<svg xmlns="http://www.w3.org/2000/svg" xmlns:xlink="http://www.w3.org/1999/xlink" width="323" zoomAndPan="magnify" viewBox="0 0 242.25 130.499996" height="174" preserveAspectRatio="xMidYMid meet" version="1.0"><defs><g/></defs><g fill="#219ebc" fill-opacity="1"><g transform="translate(19.98404, 54.723125)"><g><path d="M 0.636719 -17.769531 C 1.472656 -14.464844 3.824219 -12.074219 7.691406 -12.074219 C 14.664062 -12.074219 15.621094 -16.617188 15.621094 -18.449219 L 15.621094 -19.164062 C 15.023438 -19.007812 14.542969 -18.925781 14.105469 -18.925781 C 13.667969 -18.925781 13.226562 -19.046875 12.828125 -19.285156 C 11.992188 -19.761719 12.113281 -20.640625 12.113281 -20.757812 C 12.113281 -21.835938 12.828125 -23.03125 14.382812 -23.03125 C 17.214844 -23.03125 17.96875 -21.199219 17.96875 -18.847656 C 17.96875 -18.648438 17.96875 -18.167969 17.929688 -17.371094 C 17.890625 -16.535156 17.613281 -15.261719 17.171875 -13.507812 C 16.734375 -11.753906 16.21875 -9.960938 15.660156 -8.128906 C 14.664062 -5.058594 14.066406 -2.789062 13.867188 -1.394531 C 13.667969 0 13.546875 0.875 13.546875 1.273438 C 13.546875 2.828125 14.144531 3.785156 15.261719 4.144531 C 15.859375 4.261719 16.457031 4.34375 17.015625 4.34375 C 19.007812 4.34375 20.917969 3.507812 22.832031 1.914062 C 24.742188 0.277344 26.578125 -2.113281 28.371094 -5.257812 C 30.164062 -8.40625 31.796875 -11.792969 33.351562 -15.339844 C 32.871094 -13.070312 32.234375 -10.636719 31.4375 -8.128906 C 30.441406 -5.058594 29.84375 -2.789062 29.644531 -1.394531 C 29.445312 0 29.324219 0.875 29.324219 1.273438 C 29.324219 2.828125 29.921875 3.785156 31.039062 4.144531 C 31.558594 4.261719 32.035156 4.304688 32.554688 4.304688 C 33.90625 4.304688 35.382812 3.863281 36.976562 3.027344 C 38.609375 2.191406 40.28125 0.757812 42.074219 -1.234375 C 43.828125 -3.1875 45.464844 -5.5 46.9375 -8.089844 C 48.410156 -10.679688 49.6875 -13.425781 50.722656 -16.257812 C 52.753906 -21.914062 53.234375 -26.019531 53.234375 -28.609375 C 53.234375 -29.765625 53.074219 -31.117188 52.792969 -32.710938 C 52.515625 -34.347656 51.757812 -35.820312 50.445312 -37.136719 C 49.128906 -38.449219 47.214844 -39.085938 44.785156 -39.085938 C 40.164062 -39.085938 38.089844 -35.222656 38.089844 -32.710938 C 38.089844 -32.554688 38.089844 -32.195312 38.132812 -31.597656 C 38.171875 -31 38.570312 -30.320312 39.285156 -29.644531 C 39.964844 -28.925781 41 -28.570312 42.394531 -28.570312 L 42.515625 -28.886719 C 42.671875 -29.484375 43.472656 -30.71875 45.105469 -30.71875 C 46.179688 -30.71875 46.777344 -30.164062 46.816406 -29.085938 C 46.859375 -28.011719 46.859375 -27.375 46.859375 -27.175781 C 46.859375 -25.300781 46.5 -22.992188 45.742188 -20.242188 C 44.984375 -17.492188 43.789062 -14.664062 42.234375 -11.792969 C 40.640625 -8.925781 38.730469 -6.535156 36.496094 -4.660156 C 37.09375 -5.5 37.734375 -7.050781 38.410156 -9.402344 C 39.085938 -11.753906 39.566406 -13.984375 39.84375 -16.136719 C 40.082031 -18.289062 40.242188 -20.003906 40.242188 -21.277344 C 40.242188 -22.832031 40.125 -24.304688 39.882812 -25.738281 L 30.917969 -25.738281 C 30.402344 -24.34375 29.84375 -22.910156 29.324219 -21.476562 C 28.089844 -17.929688 26.777344 -14.625 25.382812 -11.554688 C 23.988281 -8.445312 22.433594 -6.136719 20.71875 -4.660156 C 21.675781 -5.976562 22.992188 -9.523438 23.867188 -13.984375 C 24.742188 -18.410156 24.542969 -20.839844 24.542969 -21.039062 C 24.542969 -23.230469 24.226562 -25.339844 23.589844 -27.292969 C 22.910156 -29.246094 21.796875 -30.878906 20.203125 -32.113281 C 18.609375 -33.351562 16.375 -33.988281 13.507812 -33.988281 C 8.40625 -33.988281 4.703125 -31.636719 2.589844 -28.328125 C 1.515625 -26.65625 0.875 -25.140625 0.636719 -23.828125 C 0.398438 -22.472656 0.277344 -21.4375 0.277344 -20.640625 C 0.277344 -19.644531 0.398438 -18.6875 0.636719 -17.769531 Z M 0.636719 -17.769531 "/></g></g></g><g fill="#219ebc" fill-opacity="1"><g transform="translate(69.469508, 54.723125)"><g><path d="M -0.199219 -5.140625 C -0.0390625 -2.113281 1.273438 -0.0390625 4.660156 -0.0390625 L 5.699219 -2.390625 C 6.375 -3.945312 7.25 -5.738281 8.328125 -7.769531 C 9.402344 -9.761719 10.480469 -11.554688 11.632812 -13.109375 C 12.75 -14.664062 13.746094 -15.460938 14.625 -15.460938 C 14.863281 -15.460938 14.980469 -15.339844 14.980469 -15.0625 C 14.980469 -14.703125 14.742188 -13.90625 13.785156 -11.675781 C 13.269531 -10.519531 12.789062 -9.242188 12.351562 -7.929688 C 11.394531 -5.257812 11.476562 -3.984375 11.476562 -3.664062 C 11.476562 -2.710938 11.753906 -1.832031 12.351562 -1.117188 C 12.910156 -0.398438 14.066406 -0.0390625 15.777344 -0.0390625 C 17.332031 -0.0390625 18.726562 -0.476562 20.003906 -1.316406 C 22.511719 -2.988281 23.988281 -5.257812 23.988281 -6.851562 C 23.988281 -6.894531 23.945312 -7.132812 23.945312 -7.570312 C 23.90625 -8.007812 23.347656 -8.246094 22.273438 -8.246094 L 22.113281 -8.007812 C 21.796875 -7.449219 21.039062 -6.496094 19.921875 -6.496094 C 18.6875 -6.496094 18.765625 -7.25 18.765625 -7.648438 C 18.765625 -8.289062 19.046875 -9.363281 19.683594 -10.957031 C 20.320312 -12.75 20.800781 -14.464844 20.800781 -15.738281 C 20.800781 -15.976562 21.238281 -18.726562 16.972656 -18.726562 C 13.109375 -18.726562 9.960938 -16.617188 7.691406 -13.867188 C 8.6875 -17.613281 9.960938 -21.554688 11.515625 -25.738281 L 6.214844 -25.738281 L 5.539062 -24.34375 C 4.621094 -22.433594 3.1875 -19.285156 1.914062 -15.621094 C 0.636719 -11.953125 -0.199219 -8.40625 -0.199219 -5.65625 C -0.199219 -5.5 -0.199219 -5.300781 -0.199219 -5.140625 Z M -0.199219 -5.140625 "/></g></g></g><g fill="#219ebc" fill-opacity="1"><g transform="translate(91.741956, 54.723125)"><g><path d="M 0.796875 -1.953125 C 1.554688 -0.675781 2.828125 -0.0390625 4.582031 -0.0390625 C 6.773438 -0.0390625 8.605469 -1.316406 10.160156 -3.027344 C 10.519531 -1.234375 11.714844 -0.0390625 14.265625 -0.0390625 C 16.535156 -0.0390625 18.765625 -1.316406 20.359375 -2.949219 C 21.914062 -4.542969 22.511719 -5.976562 22.511719 -6.851562 C 22.511719 -7.050781 22.433594 -7.332031 22.3125 -7.691406 C 22.195312 -8.046875 21.714844 -8.246094 20.800781 -8.246094 L 20.640625 -8.007812 C 20.320312 -7.449219 19.5625 -6.496094 18.410156 -6.496094 C 17.730469 -6.496094 17.371094 -6.734375 17.332031 -7.25 C 17.292969 -7.730469 17.253906 -8.046875 17.253906 -8.246094 C 17.253906 -8.964844 17.371094 -9.882812 17.652344 -10.996094 C 18.167969 -13.1875 19.207031 -15.777344 19.882812 -17.492188 L 20.402344 -18.726562 L 15.101562 -18.726562 L 14.382812 -17.414062 C 13.707031 -18.210938 12.550781 -18.726562 10.679688 -18.726562 C 8.488281 -18.726562 6.613281 -18.089844 5.058594 -16.816406 C 3.464844 -15.539062 2.230469 -13.984375 1.316406 -12.152344 C 0.398438 -10.320312 -0.078125 -8.886719 -0.121094 -7.847656 C -0.199219 -6.8125 -0.199219 -6.175781 -0.199219 -5.976562 C -0.199219 -4.421875 0.121094 -3.066406 0.796875 -1.953125 Z M 6.335938 -7.890625 C 6.375 -8.804688 6.613281 -9.839844 7.132812 -10.996094 C 7.648438 -12.152344 8.289062 -13.1875 9.042969 -14.105469 C 9.800781 -15.023438 10.597656 -15.460938 11.433594 -15.460938 C 12.390625 -15.460938 12.3125 -14.703125 12.3125 -14.382812 C 12.3125 -14.066406 12.230469 -13.667969 12.113281 -13.1875 C 11.832031 -12.191406 11.234375 -10.835938 10.796875 -10.039062 L 10.199219 -8.964844 C 9.683594 -8.046875 8.40625 -6.496094 7.332031 -6.496094 C 6.652344 -6.496094 6.335938 -6.933594 6.335938 -7.769531 C 6.335938 -7.808594 6.335938 -7.847656 6.335938 -7.890625 Z M 6.335938 -7.890625 "/></g></g></g><g fill="#219ebc" fill-opacity="1"><g transform="translate(112.540193, 54.723125)"><g><path d="M 0.558594 -1.433594 C 1.15625 -0.519531 2.191406 -0.0390625 3.664062 -0.0390625 C 5.9375 -0.0390625 8.167969 -1.316406 9.761719 -2.949219 C 11.316406 -4.542969 11.914062 -5.976562 11.914062 -6.851562 C 11.914062 -7.050781 11.832031 -7.332031 11.714844 -7.691406 C 11.59375 -8.046875 11.078125 -8.246094 10.160156 -8.246094 L 10.039062 -8.007812 C 9.722656 -7.449219 8.925781 -6.496094 7.808594 -6.496094 C 7.171875 -6.496094 6.8125 -6.773438 6.773438 -7.292969 C 6.734375 -7.847656 6.695312 -8.207031 6.695312 -8.445312 C 6.695312 -9.960938 7.132812 -12.390625 8.089844 -15.460938 L 10.082031 -15.460938 L 10.957031 -18.726562 L 9.125 -18.726562 C 9.800781 -20.679688 10.398438 -22.351562 10.917969 -23.707031 L 11.714844 -25.738281 L 6.375 -25.738281 L 5.457031 -23.789062 C 4.820312 -22.472656 4.105469 -20.757812 3.265625 -18.726562 L 0.996094 -18.726562 L 0.121094 -15.460938 L 1.992188 -15.460938 C 1.355469 -13.667969 0.835938 -11.832031 0.398438 -10.039062 C -0.519531 -6.414062 -0.320312 -5.019531 -0.320312 -4.902344 C -0.320312 -3.464844 -0.0390625 -2.3125 0.558594 -1.433594 Z M 0.558594 -1.433594 "/></g></g></g><g fill="#219ebc" fill-opacity="1"><g transform="translate(118.54149, 72.502511)"><g><path d="M 1.125 -9.710938 C 1.175781 -8.433594 1.738281 -7.105469 2.144531 -6.285156 L 2.453125 -5.621094 C 3.015625 -5.671875 3.578125 -5.722656 4.140625 -5.722656 C 7.359375 -5.722656 10.988281 -4.546875 15.28125 -2.863281 C 19.011719 -1.277344 22.945312 0.152344 27.035156 0.152344 C 29.234375 0.152344 30.96875 -0.410156 32.246094 -1.585938 C 33.527344 -2.757812 34.292969 -3.832031 34.546875 -4.855469 C 34.804688 -5.824219 34.90625 -6.59375 34.90625 -7.105469 C 34.90625 -7.921875 34.699219 -8.839844 34.191406 -9.761719 C 33.730469 -10.679688 32.65625 -11.140625 31.074219 -11.140625 C 29.078125 -9.300781 27.238281 -8.332031 25.554688 -8.226562 C 23.867188 -8.074219 22.691406 -8.023438 22.128906 -8.023438 C 19.878906 -8.023438 17.683594 -8.332031 15.433594 -8.839844 C 20.085938 -10.679688 24.53125 -14.566406 27.851562 -19.164062 C 31.125 -23.765625 32.453125 -27.902344 32.453125 -30.917969 C 32.453125 -31.480469 32.351562 -32.453125 32.144531 -33.730469 C 31.941406 -35.007812 30.96875 -36.234375 29.234375 -37.511719 C 27.445312 -38.738281 24.785156 -39.351562 21.210938 -39.351562 C 17.375 -39.351562 14.410156 -38.738281 12.417969 -37.460938 C 10.375 -36.183594 9.148438 -34.804688 8.738281 -33.421875 C 8.332031 -32.042969 8.074219 -30.867188 8.074219 -30 C 8.074219 -29.027344 8.332031 -27.851562 8.789062 -26.421875 C 9.25 -25.042969 10.171875 -23.714844 11.652344 -22.4375 C 13.132812 -21.15625 14.820312 -20.492188 16.8125 -20.492188 C 19.472656 -20.492188 20.800781 -21.71875 21.414062 -23.203125 C 22.027344 -24.683594 21.925781 -25.65625 21.925781 -25.910156 C 21.925781 -26.523438 21.875 -26.984375 21.824219 -27.445312 L 21.667969 -28.210938 C 21.210938 -27.953125 20.699219 -27.800781 20.238281 -27.800781 C 19.574219 -27.800781 18.347656 -28.109375 17.375 -29.589844 C 15.894531 -31.789062 16.148438 -35.109375 21.667969 -35.109375 C 23.765625 -35.109375 25.042969 -34.648438 25.5 -33.679688 C 25.910156 -32.707031 26.113281 -31.890625 26.113281 -31.074219 C 26.113281 -29.386719 25.449219 -26.320312 22.28125 -21.824219 C 19.113281 -17.273438 14.464844 -12.929688 9.300781 -10.425781 L 8.585938 -10.628906 C 6.082031 -11.5 4.242188 -11.90625 3.167969 -11.90625 C 1.53125 -11.90625 1.125 -10.988281 1.125 -10.015625 C 1.125 -9.914062 1.125 -9.8125 1.125 -9.710938 Z M 1.125 -9.710938 "/></g></g></g><g fill="#219ebc" fill-opacity="1"><g transform="translate(63.161233, 95.799075)"><g><path d="M 0.636719 -17.769531 C 1.472656 -14.464844 3.824219 -12.074219 7.691406 -12.074219 C 14.664062 -12.074219 15.621094 -16.617188 15.621094 -18.449219 L 15.621094 -19.164062 C 15.023438 -19.007812 14.542969 -18.925781 14.105469 -18.925781 C 13.667969 -18.925781 13.226562 -19.046875 12.828125 -19.285156 C 11.992188 -19.761719 12.113281 -20.640625 12.113281 -20.757812 C 12.113281 -21.835938 12.828125 -23.03125 14.382812 -23.03125 C 17.214844 -23.03125 17.96875 -21.199219 17.96875 -18.847656 C 17.96875 -18.648438 17.96875 -18.167969 17.929688 -17.371094 C 17.890625 -16.535156 17.613281 -15.261719 17.171875 -13.507812 C 16.734375 -11.753906 16.21875 -9.960938 15.660156 -8.128906 C 14.664062 -5.058594 14.066406 -2.789062 13.867188 -1.394531 C 13.667969 0 13.546875 0.875 13.546875 1.273438 C 13.546875 2.828125 14.144531 3.785156 15.261719 4.144531 C 15.859375 4.261719 16.457031 4.34375 17.015625 4.34375 C 19.007812 4.34375 20.917969 3.507812 22.832031 1.914062 C 24.742188 0.277344 26.578125 -2.113281 28.371094 -5.257812 C 30.164062 -8.40625 31.796875 -11.792969 33.351562 -15.339844 C 32.871094 -13.070312 32.234375 -10.636719 31.4375 -8.128906 C 30.441406 -5.058594 29.84375 -2.789062 29.644531 -1.394531 C 29.445312 0 29.324219 0.875 29.324219 1.273438 C 29.324219 2.828125 29.921875 3.785156 31.039062 4.144531 C 31.558594 4.261719 32.035156 4.304688 32.554688 4.304688 C 33.90625 4.304688 35.382812 3.863281 36.976562 3.027344 C 38.609375 2.191406 40.28125 0.757812 42.074219 -1.234375 C 43.828125 -3.1875 45.464844 -5.5 46.9375 -8.089844 C 48.410156 -10.679688 49.6875 -13.425781 50.722656 -16.257812 C 52.753906 -21.914062 53.234375 -26.019531 53.234375 -28.609375 C 53.234375 -29.765625 53.074219 -31.117188 52.792969 -32.710938 C 52.515625 -34.347656 51.757812 -35.820312 50.445312 -37.136719 C 49.128906 -38.449219 47.214844 -39.085938 44.785156 -39.085938 C 40.164062 -39.085938 38.089844 -35.222656 38.089844 -32.710938 C 38.089844 -32.554688 38.089844 -32.195312 38.132812 -31.597656 C 38.171875 -31 38.570312 -30.320312 39.285156 -29.644531 C 39.964844 -28.925781 41 -28.570312 42.394531 -28.570312 L 42.515625 -28.886719 C 42.671875 -29.484375 43.472656 -30.71875 45.105469 -30.71875 C 46.179688 -30.71875 46.777344 -30.164062 46.816406 -29.085938 C 46.859375 -28.011719 46.859375 -27.375 46.859375 -27.175781 C 46.859375 -25.300781 46.5 -22.992188 45.742188 -20.242188 C 44.984375 -17.492188 43.789062 -14.664062 42.234375 -11.792969 C 40.640625 -8.925781 38.730469 -6.535156 36.496094 -4.660156 C 37.09375 -5.5 37.734375 -7.050781 38.410156 -9.402344 C 39.085938 -11.753906 39.566406 -13.984375 39.84375 -16.136719 C 40.082031 -18.289062 40.242188 -20.003906 40.242188 -21.277344 C 40.242188 -22.832031 40.125 -24.304688 39.882812 -25.738281 L 30.917969 -25.738281 C 30.402344 -24.34375 29.84375 -22.910156 29.324219 -21.476562 C 28.089844 -17.929688 26.777344 -14.625 25.382812 -11.554688 C 23.988281 -8.445312 22.433594 -6.136719 20.71875 -4.660156 C 21.675781 -5.976562 22.992188 -9.523438 23.867188 -13.984375 C 24.742188 -18.410156 24.542969 -20.839844 24.542969 -21.039062 C 24.542969 -23.230469 24.226562 -25.339844 23.589844 -27.292969 C 22.910156 -29.246094 21.796875 -30.878906 20.203125 -32.113281 C 18.609375 -33.351562 16.375 -33.988281 13.507812 -33.988281 C 8.40625 -33.988281 4.703125 -31.636719 2.589844 -28.328125 C 1.515625 -26.65625 0.875 -25.140625 0.636719 -23.828125 C 0.398438 -22.472656 0.277344 -21.4375 0.277344 -20.640625 C 0.277344 -19.644531 0.398438 -18.6875 0.636719 -17.769531 Z M 0.636719 -17.769531 "/></g></g></g><g fill="#219ebc" fill-opacity="1"><g transform="translate(112.646702, 95.799075)"><g><path d="M 0.199219 -4.902344 C 0.835938 -2.070312 3.027344 -0.0390625 7.132812 -0.0390625 C 9.402344 -0.0390625 11.355469 -0.476562 13.027344 -1.316406 C 16.335938 -2.988281 18.167969 -5.300781 18.167969 -6.972656 C 18.167969 -6.972656 18.128906 -7.171875 18.128906 -7.609375 C 18.128906 -8.046875 17.613281 -8.246094 16.535156 -8.246094 L 15.820312 -7.808594 C 14.824219 -7.210938 13.070312 -6.496094 10.878906 -6.496094 C 8.765625 -6.496094 7.609375 -7.210938 7.171875 -8.289062 C 9.722656 -8.488281 11.675781 -9.125 12.988281 -10.199219 C 14.304688 -11.277344 14.980469 -12.191406 15.101562 -12.988281 C 15.222656 -13.746094 15.300781 -14.304688 15.300781 -14.542969 C 15.300781 -15.539062 14.941406 -16.496094 14.222656 -17.371094 C 13.507812 -18.289062 12.3125 -18.726562 10.636719 -18.726562 C 7.011719 -18.726562 4.0625 -16.734375 2.152344 -13.90625 C 0.238281 -11.035156 -0.0390625 -8.566406 -0.078125 -7.09375 C -0.0390625 -6.335938 0.0390625 -5.617188 0.199219 -4.902344 Z M 7.011719 -10.4375 C 7.292969 -11.714844 7.847656 -12.871094 8.765625 -13.90625 C 9.640625 -14.941406 10.519531 -15.460938 11.355469 -15.460938 C 11.953125 -15.460938 12.273438 -15.140625 12.273438 -14.464844 C 12.273438 -14.425781 12.230469 -14.265625 12.230469 -13.90625 C 12.230469 -13.546875 11.832031 -12.949219 10.996094 -12.152344 C 10.160156 -11.355469 8.84375 -10.796875 7.011719 -10.4375 Z M 7.011719 -10.4375 "/></g></g></g><g fill="#219ebc" fill-opacity="1"><g transform="translate(129.141854, 95.799075)"><g><path d="M 0.796875 -1.953125 C 1.554688 -0.675781 2.828125 -0.0390625 4.582031 -0.0390625 C 6.773438 -0.0390625 8.605469 -1.316406 10.160156 -3.027344 C 10.519531 -1.234375 11.714844 -0.0390625 14.265625 -0.0390625 C 16.535156 -0.0390625 18.765625 -1.316406 20.359375 -2.949219 C 21.914062 -4.542969 22.511719 -5.976562 22.511719 -6.851562 C 22.511719 -7.050781 22.433594 -7.332031 22.3125 -7.691406 C 22.195312 -8.046875 21.714844 -8.246094 20.800781 -8.246094 L 20.640625 -8.007812 C 20.320312 -7.449219 19.5625 -6.496094 18.410156 -6.496094 C 17.730469 -6.496094 17.371094 -6.734375 17.332031 -7.25 C 17.292969 -7.730469 17.253906 -8.046875 17.253906 -8.246094 C 17.253906 -8.964844 17.371094 -9.882812 17.652344 -10.996094 C 18.167969 -13.1875 19.207031 -15.777344 19.882812 -17.492188 L 20.402344 -18.726562 L 15.101562 -18.726562 L 14.382812 -17.414062 C 13.707031 -18.210938 12.550781 -18.726562 10.679688 -18.726562 C 8.488281 -18.726562 6.613281 -18.089844 5.058594 -16.816406 C 3.464844 -15.539062 2.230469 -13.984375 1.316406 -12.152344 C 0.398438 -10.320312 -0.078125 -8.886719 -0.121094 -7.847656 C -0.199219 -6.8125 -0.199219 -6.175781 -0.199219 -5.976562 C -0.199219 -4.421875 0.121094 -3.066406 0.796875 -1.953125 Z M 6.335938 -7.890625 C 6.375 -8.804688 6.613281 -9.839844 7.132812 -10.996094 C 7.648438 -12.152344 8.289062 -13.1875 9.042969 -14.105469 C 9.800781 -15.023438 10.597656 -15.460938 11.433594 -15.460938 C 12.390625 -15.460938 12.3125 -14.703125 12.3125 -14.382812 C 12.3125 -14.066406 12.230469 -13.667969 12.113281 -13.1875 C 11.832031 -12.191406 11.234375 -10.835938 10.796875 -10.039062 L 10.199219 -8.964844 C 9.683594 -8.046875 8.40625 -6.496094 7.332031 -6.496094 C 6.652344 -6.496094 6.335938 -6.933594 6.335938 -7.769531 C 6.335938 -7.808594 6.335938 -7.847656 6.335938 -7.890625 Z M 6.335938 -7.890625 "/></g></g></g><g fill="#219ebc" fill-opacity="1"><g transform="translate(149.940092, 95.799075)"><g><path d="M 0.558594 -1.433594 C 1.15625 -0.519531 2.191406 -0.0390625 3.664062 -0.0390625 C 5.9375 -0.0390625 8.167969 -1.316406 9.761719 -2.949219 C 11.316406 -4.542969 11.914062 -5.976562 11.914062 -6.851562 C 11.914062 -7.050781 11.832031 -7.332031 11.714844 -7.691406 C 11.59375 -8.046875 11.078125 -8.246094 10.160156 -8.246094 L 10.039062 -8.007812 C 9.722656 -7.449219 8.925781 -6.496094 7.808594 -6.496094 C 7.171875 -6.496094 6.8125 -6.773438 6.773438 -7.292969 C 6.734375 -7.847656 6.695312 -8.207031 6.695312 -8.445312 C 6.695312 -9.960938 7.132812 -12.390625 8.089844 -15.460938 L 10.082031 -15.460938 L 10.957031 -18.726562 L 9.125 -18.726562 C 9.800781 -20.679688 10.398438 -22.351562 10.917969 -23.707031 L 11.714844 -25.738281 L 6.375 -25.738281 L 5.457031 -23.789062 C 4.820312 -22.472656 4.105469 -20.757812 3.265625 -18.726562 L 0.996094 -18.726562 L 0.121094 -15.460938 L 1.992188 -15.460938 C 1.355469 -13.667969 0.835938 -11.832031 0.398438 -10.039062 C -0.519531 -6.414062 -0.320312 -5.019531 -0.320312 -4.902344 C -0.320312 -3.464844 -0.0390625 -2.3125 0.558594 -1.433594 Z M 0.558594 -1.433594 "/></g></g></g><g fill="#219ebc" fill-opacity="1"><g transform="translate(160.139994, 95.799075)"><g><path d="M -0.199219 -5.140625 C -0.0390625 -2.113281 1.273438 -0.0390625 4.660156 -0.0390625 L 5.699219 -2.390625 C 6.375 -3.945312 7.25 -5.738281 8.328125 -7.769531 C 9.402344 -9.761719 10.480469 -11.554688 11.632812 -13.109375 C 12.75 -14.664062 13.746094 -15.460938 14.625 -15.460938 C 14.863281 -15.460938 14.980469 -15.339844 14.980469 -15.0625 C 14.980469 -14.703125 14.742188 -13.90625 13.785156 -11.675781 C 13.269531 -10.519531 12.789062 -9.242188 12.351562 -7.929688 C 11.394531 -5.257812 11.476562 -3.984375 11.476562 -3.664062 C 11.476562 -2.710938 11.753906 -1.832031 12.351562 -1.117188 C 12.910156 -0.398438 14.066406 -0.0390625 15.777344 -0.0390625 C 17.332031 -0.0390625 18.726562 -0.476562 20.003906 -1.316406 C 22.511719 -2.988281 23.988281 -5.257812 23.988281 -6.851562 C 23.988281 -6.894531 23.945312 -7.132812 23.945312 -7.570312 C 23.90625 -8.007812 23.347656 -8.246094 22.273438 -8.246094 L 22.113281 -8.007812 C 21.796875 -7.449219 21.039062 -6.496094 19.921875 -6.496094 C 18.6875 -6.496094 18.765625 -7.25 18.765625 -7.648438 C 18.765625 -8.289062 19.046875 -9.363281 19.683594 -10.957031 C 20.320312 -12.75 20.800781 -14.464844 20.800781 -15.738281 C 20.800781 -15.976562 21.238281 -18.726562 16.972656 -18.726562 C 13.109375 -18.726562 9.960938 -16.617188 7.691406 -13.867188 C 8.6875 -17.613281 9.960938 -21.554688 11.515625 -25.738281 L 6.214844 -25.738281 L 5.539062 -24.34375 C 4.621094 -22.433594 3.1875 -19.285156 1.914062 -15.621094 C 0.636719 -11.953125 -0.199219 -8.40625 -0.199219 -5.65625 C -0.199219 -5.5 -0.199219 -5.300781 -0.199219 -5.140625 Z M -0.199219 -5.140625 "/></g></g></g><g fill="#219ebc" fill-opacity="1"><g transform="translate(182.412441, 95.799075)"><g><path d="M 0.199219 -4.902344 C 0.835938 -2.070312 3.027344 -0.0390625 7.132812 -0.0390625 C 9.402344 -0.0390625 11.355469 -0.476562 13.027344 -1.316406 C 16.335938 -2.988281 18.167969 -5.300781 18.167969 -6.972656 C 18.167969 -6.972656 18.128906 -7.171875 18.128906 -7.609375 C 18.128906 -8.046875 17.613281 -8.246094 16.535156 -8.246094 L 15.820312 -7.808594 C 14.824219 -7.210938 13.070312 -6.496094 10.878906 -6.496094 C 8.765625 -6.496094 7.609375 -7.210938 7.171875 -8.289062 C 9.722656 -8.488281 11.675781 -9.125 12.988281 -10.199219 C 14.304688 -11.277344 14.980469 -12.191406 15.101562 -12.988281 C 15.222656 -13.746094 15.300781 -14.304688 15.300781 -14.542969 C 15.300781 -15.539062 14.941406 -16.496094 14.222656 -17.371094 C 13.507812 -18.289062 12.3125 -18.726562 10.636719 -18.726562 C 7.011719 -18.726562 4.0625 -16.734375 2.152344 -13.90625 C 0.238281 -11.035156 -0.0390625 -8.566406 -0.078125 -7.09375 C -0.0390625 -6.335938 0.0390625 -5.617188 0.199219 -4.902344 Z M 7.011719 -10.4375 C 7.292969 -11.714844 7.847656 -12.871094 8.765625 -13.90625 C 9.640625 -14.941406 10.519531 -15.460938 11.355469 -15.460938 C 11.953125 -15.460938 12.273438 -15.140625 12.273438 -14.464844 C 12.273438 -14.425781 12.230469 -14.265625 12.230469 -13.90625 C 12.230469 -13.546875 11.832031 -12.949219 10.996094 -12.152344 C 10.160156 -11.355469 8.84375 -10.796875 7.011719 -10.4375 Z M 7.011719 -10.4375 "/></g></g></g><g fill="#219ebc" fill-opacity="1"><g transform="translate(198.907594, 95.799075)"><g><path d="M -0.636719 -2.589844 C 1.074219 -4.304688 2.710938 -6.453125 4.222656 -9.085938 C 5.699219 -11.714844 6.851562 -13.90625 7.609375 -15.699219 C 8.605469 -15.539062 9.800781 -15.460938 11.15625 -15.460938 C 11.394531 -15.460938 11.515625 -15.339844 11.515625 -15.0625 C 11.515625 -14.703125 11.277344 -13.90625 10.359375 -11.675781 C 9.839844 -10.519531 9.363281 -9.242188 8.925781 -7.929688 C 7.96875 -5.257812 8.046875 -3.984375 8.046875 -3.664062 C 8.046875 -2.710938 8.328125 -1.832031 8.925781 -1.117188 C 9.484375 -0.398438 10.636719 -0.0390625 12.351562 -0.0390625 C 13.90625 -0.0390625 15.300781 -0.476562 16.574219 -1.316406 C 19.085938 -2.988281 20.558594 -5.257812 20.558594 -6.851562 C 20.558594 -6.894531 20.519531 -7.132812 20.519531 -7.570312 C 20.480469 -8.007812 19.921875 -8.246094 18.847656 -8.246094 L 18.6875 -8.007812 C 18.367188 -7.449219 17.652344 -6.496094 16.457031 -6.496094 C 15.300781 -6.496094 15.339844 -7.25 15.339844 -7.648438 C 15.339844 -8.289062 15.621094 -9.363281 16.21875 -10.957031 C 16.894531 -12.75 17.371094 -14.464844 17.371094 -15.738281 C 17.371094 -15.976562 17.8125 -18.726562 13.546875 -18.726562 C 8.289062 -18.726562 7.648438 -20.121094 7.648438 -20.957031 C 7.648438 -21.238281 7.929688 -21.996094 8.40625 -22.59375 L 8.605469 -22.792969 L 2.628906 -23.867188 L 2.390625 -23.390625 C 2.03125 -22.710938 1.671875 -21.636719 1.671875 -20.558594 C 1.671875 -20.519531 1.355469 -18.25 4.105469 -16.734375 C 1.632812 -10.4375 -0.078125 -7.96875 -0.796875 -7.25 L -1.15625 -6.894531 Z M -0.636719 -2.589844 "/></g></g></g><path stroke-linecap="butt" transform="matrix(0.747137, 0, 0, 0.747137, 23.862219, 15.960193)" fill="none" stroke-linejoin="miter" d="M 0.858861 25.211807 C 1.977715 29.640167 5.114689 32.83988 10.301151 32.83988 C 19.623191 32.83988 20.90935 26.75938 20.90935 24.312541 L 20.90935 23.350536 C 20.104193 23.559667 19.466342 23.664233 18.880774 23.664233 C 18.295205 23.664233 17.709637 23.507384 17.171123 23.193687 C 16.052269 22.545379 16.209118 21.369014 16.209118 21.217394 C 16.209118 19.769158 17.171123 18.179758 19.25721 18.179758 C 23.032035 18.179758 24.046323 20.631825 24.046323 23.779255 C 24.046323 24.04067 24.046323 24.678521 23.99404 25.745092 C 23.941757 26.863946 23.565321 28.573596 22.979752 30.91587 C 22.394184 33.273828 21.70405 35.668385 20.961633 38.115224 C 19.623191 42.229887 18.828491 45.262295 18.551391 47.139251 C 18.295205 49.000522 18.138357 50.171658 18.138357 50.704944 C 18.138357 52.791031 18.933057 54.066734 20.428347 54.547736 C 21.223047 54.704585 22.028204 54.809151 22.770621 54.809151 C 25.442276 54.809151 27.993681 53.685068 30.555543 51.562383 C 33.122633 49.376958 35.569472 46.177245 37.964029 41.958016 C 40.37427 37.749244 42.564923 33.221545 44.630097 28.469031 C 43.992246 31.511895 43.150491 34.758662 42.078692 38.115224 C 40.74025 42.229887 39.94555 45.262295 39.673679 47.139251 C 39.412265 49.000522 39.255416 50.171658 39.255416 50.704944 C 39.255416 52.791031 40.050116 54.066734 41.545406 54.547736 C 42.235541 54.704585 42.873392 54.756868 43.563526 54.756868 C 45.388199 54.756868 47.354036 54.171299 49.487178 53.047217 C 51.677831 51.928363 53.915538 50.01481 56.310095 47.348382 C 58.668053 44.729009 60.853478 41.644319 62.819314 38.177963 C 64.800836 34.706379 66.505258 31.030892 67.885527 27.245611 C 70.609465 19.664592 71.247316 14.16966 71.247316 10.708533 C 71.247316 9.160959 71.038185 7.346743 70.661748 5.213601 C 70.295768 3.028176 69.28148 1.06234 67.519546 -0.699594 C 65.752385 -2.466756 63.20098 -3.313738 59.943756 -3.313738 C 53.75869 -3.313738 50.987696 1.85704 50.987696 5.213601 C 50.987696 5.433189 50.987696 5.903735 51.039979 6.708892 C 51.092262 7.503592 51.625548 8.418542 52.587553 9.328264 C 53.486819 10.279813 54.877543 10.760816 56.738814 10.760816 L 56.895663 10.332096 C 57.120479 9.537396 58.18705 7.885257 60.372475 7.885257 C 61.805026 7.885257 62.615411 8.622445 62.667694 10.070682 C 62.719977 11.513689 62.719977 12.360672 62.719977 12.632543 C 62.719977 15.136894 62.233746 18.232041 61.219458 21.907528 C 60.20517 25.588243 58.605314 29.378753 56.534911 33.221545 C 54.396541 37.048653 51.834679 40.248366 48.849326 42.763173 C 49.644026 41.644319 50.506694 39.558232 51.416416 36.410802 C 52.315682 33.273828 52.953533 30.278019 53.32997 27.397231 C 53.654124 24.521672 53.863255 22.231682 53.863255 20.52726 C 53.863255 18.441172 53.706407 16.464879 53.382253 14.551325 L 41.378101 14.551325 C 40.687967 16.412596 39.94555 18.336606 39.255416 20.25016 C 37.603277 25.002675 35.846571 29.431036 33.969616 33.530014 C 32.108345 37.696961 30.022258 40.786879 27.732267 42.763173 C 29.007969 41.006468 30.764675 36.253953 31.935811 30.278019 C 33.122633 24.364824 32.850762 21.112828 32.850762 20.835729 C 32.850762 17.907887 32.422042 15.084611 31.575059 12.465238 C 30.660109 9.86155 29.175275 7.676125 27.042133 6.018758 C 24.908991 4.366618 21.913181 3.509179 18.086074 3.509179 C 11.247472 3.509179 6.291054 6.656609 3.462549 11.08497 C 2.029998 13.322677 1.172559 15.340797 0.858861 17.113187 C 0.534707 18.922175 0.377859 20.302443 0.377859 21.369014 C 0.377859 22.712684 0.534707 23.988387 0.858861 25.211807 Z M 65.971973 42.125321 C 66.181104 46.177245 67.937809 48.948239 72.470736 48.948239 L 73.861461 45.79558 C 74.760727 43.714721 75.931863 41.320165 77.380099 38.596226 C 78.823107 35.929799 80.255658 33.530014 81.803232 31.449155 C 83.303751 29.378753 84.631736 28.312182 85.802873 28.312182 C 86.127027 28.312182 86.283876 28.469031 86.283876 28.845467 C 86.283876 29.32647 85.970178 30.382584 84.684019 33.378394 C 83.993885 34.925967 83.356034 36.63039 82.770465 38.387095 C 81.479078 41.958016 81.599329 43.662438 81.599329 44.091158 C 81.599329 45.366861 81.960081 46.553682 82.770465 47.505231 C 83.512882 48.467236 85.060456 48.948239 87.350447 48.948239 C 89.436534 48.948239 91.297805 48.36267 93.002227 47.243816 C 96.364017 45.00088 98.34031 41.958016 98.34031 39.819646 C 98.34031 39.767363 98.288027 39.458894 98.288027 38.868097 C 98.235744 38.282529 97.482871 37.958375 96.050319 37.958375 L 95.825503 38.282529 C 95.412468 39.024946 94.39818 40.300649 92.897661 40.300649 C 91.245522 40.300649 91.350088 39.302045 91.350088 38.76876 C 91.350088 37.906092 91.726524 36.463084 92.573507 34.340399 C 93.430947 31.930158 94.068798 29.640167 94.068798 27.935745 C 94.068798 27.622048 94.654366 23.936104 88.955531 23.936104 C 83.784753 23.936104 79.565524 26.75938 76.533117 30.445324 C 77.861102 25.431395 79.565524 20.145594 81.651612 14.551325 L 74.551595 14.551325 L 73.641873 16.412596 C 72.418453 18.974458 70.504899 23.193687 68.800477 28.087365 C 67.090827 32.996729 65.971973 37.749244 65.971973 41.424731 C 65.971973 41.644319 65.971973 41.905733 65.971973 42.125321 Z M 97.111662 46.381149 C 98.12595 48.090799 99.830372 48.948239 102.177874 48.948239 C 105.105716 48.948239 107.56824 47.243816 109.638643 44.948598 C 110.119645 47.348382 111.719502 48.948239 115.133574 48.948239 C 118.176439 48.948239 121.161792 47.243816 123.294933 45.053163 C 125.375793 42.920021 126.170492 41.006468 126.170492 39.819646 C 126.170492 39.558232 126.065927 39.181795 125.914306 38.700792 C 125.741773 38.230246 125.103921 37.958375 123.880502 37.958375 L 123.67137 38.282529 C 123.242651 39.024946 122.228363 40.300649 120.675561 40.300649 C 119.781523 40.300649 119.295292 39.99218 119.243009 39.302045 C 119.195955 38.648509 119.143672 38.230246 119.143672 37.958375 C 119.143672 36.99637 119.295292 35.77295 119.676957 34.288116 C 120.367092 31.34459 121.74736 27.883462 122.657082 25.588243 L 123.347216 23.936104 L 116.252428 23.936104 L 115.30088 25.692809 C 114.391157 24.626238 112.838355 23.936104 110.339233 23.936104 C 107.395707 23.936104 104.896584 24.783087 102.815725 26.487509 C 100.677355 28.207616 99.025216 30.278019 97.801796 32.740543 C 96.578377 35.187382 95.940525 37.111392 95.888242 38.491661 C 95.783677 39.887614 95.783677 40.734597 95.783677 41.006468 C 95.783677 43.07687 96.20194 44.896315 97.111662 46.381149 Z M 104.520148 38.439378 C 104.572431 37.215958 104.896584 35.825233 105.586719 34.288116 C 106.276853 32.740543 107.134292 31.34459 108.153809 30.12117 C 109.168097 28.89775 110.234668 28.312182 111.353521 28.312182 C 112.629224 28.312182 112.524658 29.32647 112.524658 29.744733 C 112.524658 30.173453 112.409636 30.706738 112.252787 31.34459 C 111.886807 32.68826 111.08165 34.497248 110.496082 35.563819 L 109.701382 36.99637 C 109.000791 38.230246 107.291141 40.300649 105.85859 40.300649 C 104.948867 40.300649 104.520148 39.71508 104.520148 38.596226 C 104.520148 38.543943 104.520148 38.491661 104.520148 38.439378 Z M 124.622919 47.086968 C 125.428075 48.310387 126.808344 48.948239 128.789865 48.948239 C 131.822273 48.948239 134.818082 47.243816 136.951224 45.053163 C 139.021627 42.920021 139.832012 41.006468 139.832012 39.819646 C 139.832012 39.558232 139.727446 39.181795 139.554912 38.700792 C 139.403292 38.230246 138.713158 37.958375 137.474053 37.958375 L 137.317205 38.282529 C 136.888485 39.024946 135.832371 40.300649 134.33708 40.300649 C 133.474412 40.300649 132.99341 39.939897 132.941127 39.234078 C 132.888844 38.491661 132.836561 38.010658 132.836561 37.696961 C 132.836561 35.668385 133.422129 32.41116 134.70306 28.312182 L 137.369488 28.312182 L 138.540624 23.936104 L 136.093785 23.936104 C 137.003507 21.321959 137.798207 19.079024 138.488341 17.270036 L 139.554912 14.551325 L 132.407841 14.551325 L 131.184422 17.16547 C 130.337439 18.922175 129.375434 21.217394 128.25658 23.936104 L 125.208487 23.936104 L 124.037351 28.312182 L 126.552158 28.312182 C 125.68949 30.706738 124.999356 33.153578 124.413787 35.563819 C 123.190368 40.420899 123.451782 42.28217 123.451782 42.439019 C 123.451782 44.363029 123.828219 45.900146 124.622919 47.086968 Z M 124.622919 47.086968 " stroke="#219ebc" stroke-width="2.466665" stroke-opacity="1" stroke-miterlimit="4"/><g fill="#ffffff" fill-opacity="1"><g transform="translate(23.862219, 52.569923)"><g><path d="M 0.636719 -17.769531 C 1.472656 -14.464844 3.824219 -12.074219 7.691406 -12.074219 C 14.664062 -12.074219 15.621094 -16.617188 15.621094 -18.449219 L 15.621094 -19.164062 C 15.023438 -19.007812 14.542969 -18.925781 14.105469 -18.925781 C 13.667969 -18.925781 13.226562 -19.046875 12.828125 -19.285156 C 11.992188 -19.761719 12.113281 -20.640625 12.113281 -20.757812 C 12.113281 -21.835938 12.828125 -23.03125 14.382812 -23.03125 C 17.214844 -23.03125 17.96875 -21.199219 17.96875 -18.847656 C 17.96875 -18.648438 17.96875 -18.167969 17.929688 -17.371094 C 17.890625 -16.535156 17.613281 -15.261719 17.171875 -13.507812 C 16.734375 -11.753906 16.21875 -9.960938 15.660156 -8.128906 C 14.664062 -5.058594 14.066406 -2.789062 13.867188 -1.394531 C 13.667969 0 13.546875 0.875 13.546875 1.273438 C 13.546875 2.828125 14.144531 3.785156 15.261719 4.144531 C 15.859375 4.261719 16.457031 4.34375 17.015625 4.34375 C 19.007812 4.34375 20.917969 3.507812 22.832031 1.914062 C 24.742188 0.277344 26.578125 -2.113281 28.371094 -5.257812 C 30.164062 -8.40625 31.796875 -11.792969 33.351562 -15.339844 C 32.871094 -13.070312 32.234375 -10.636719 31.4375 -8.128906 C 30.441406 -5.058594 29.84375 -2.789062 29.644531 -1.394531 C 29.445312 0 29.324219 0.875 29.324219 1.273438 C 29.324219 2.828125 29.921875 3.785156 31.039062 4.144531 C 31.558594 4.261719 32.035156 4.304688 32.554688 4.304688 C 33.90625 4.304688 35.382812 3.863281 36.976562 3.027344 C 38.609375 2.191406 40.28125 0.757812 42.074219 -1.234375 C 43.828125 -3.1875 45.464844 -5.5 46.9375 -8.089844 C 48.410156 -10.679688 49.6875 -13.425781 50.722656 -16.257812 C 52.753906 -21.914062 53.234375 -26.019531 53.234375 -28.609375 C 53.234375 -29.765625 53.074219 -31.117188 52.792969 -32.710938 C 52.515625 -34.347656 51.757812 -35.820312 50.445312 -37.136719 C 49.128906 -38.449219 47.214844 -39.085938 44.785156 -39.085938 C 40.164062 -39.085938 38.089844 -35.222656 38.089844 -32.710938 C 38.089844 -32.554688 38.089844 -32.195312 38.132812 -31.597656 C 38.171875 -31 38.570312 -30.320312 39.285156 -29.644531 C 39.964844 -28.925781 41 -28.570312 42.394531 -28.570312 L 42.515625 -28.886719 C 42.671875 -29.484375 43.472656 -30.71875 45.105469 -30.71875 C 46.179688 -30.71875 46.777344 -30.164062 46.816406 -29.085938 C 46.859375 -28.011719 46.859375 -27.375 46.859375 -27.175781 C 46.859375 -25.300781 46.5 -22.992188 45.742188 -20.242188 C 44.984375 -17.492188 43.789062 -14.664062 42.234375 -11.792969 C 40.640625 -8.925781 38.730469 -6.535156 36.496094 -4.660156 C 37.09375 -5.5 37.734375 -7.050781 38.410156 -9.402344 C 39.085938 -11.753906 39.566406 -13.984375 39.84375 -16.136719 C 40.082031 -18.289062 40.242188 -20.003906 40.242188 -21.277344 C 40.242188 -22.832031 40.125 -24.304688 39.882812 -25.738281 L 30.917969 -25.738281 C 30.402344 -24.34375 29.84375 -22.910156 29.324219 -21.476562 C 28.089844 -17.929688 26.777344 -14.625 25.382812 -11.554688 C 23.988281 -8.445312 22.433594 -6.136719 20.71875 -4.660156 C 21.675781 -5.976562 22.992188 -9.523438 23.867188 -13.984375 C 24.742188 -18.410156 24.542969 -20.839844 24.542969 -21.039062 C 24.542969 -23.230469 24.226562 -25.339844 23.589844 -27.292969 C 22.910156 -29.246094 21.796875 -30.878906 20.203125 -32.113281 C 18.609375 -33.351562 16.375 -33.988281 13.507812 -33.988281 C 8.40625 -33.988281 4.703125 -31.636719 2.589844 -28.328125 C 1.515625 -26.65625 0.875 -25.140625 0.636719 -23.828125 C 0.398438 -22.472656 0.277344 -21.4375 0.277344 -20.640625 C 0.277344 -19.644531 0.398438 -18.6875 0.636719 -17.769531 Z M 0.636719 -17.769531 "/></g></g></g><g fill="#ffffff" fill-opacity="1"><g transform="translate(73.347687, 52.569923)"><g><path d="M -0.199219 -5.140625 C -0.0390625 -2.113281 1.273438 -0.0390625 4.660156 -0.0390625 L 5.699219 -2.390625 C 6.375 -3.945312 7.25 -5.738281 8.328125 -7.769531 C 9.402344 -9.761719 10.480469 -11.554688 11.632812 -13.109375 C 12.75 -14.664062 13.746094 -15.460938 14.625 -15.460938 C 14.863281 -15.460938 14.980469 -15.339844 14.980469 -15.0625 C 14.980469 -14.703125 14.742188 -13.90625 13.785156 -11.675781 C 13.269531 -10.519531 12.789062 -9.242188 12.351562 -7.929688 C 11.394531 -5.257812 11.476562 -3.984375 11.476562 -3.664062 C 11.476562 -2.710938 11.753906 -1.832031 12.351562 -1.117188 C 12.910156 -0.398438 14.066406 -0.0390625 15.777344 -0.0390625 C 17.332031 -0.0390625 18.726562 -0.476562 20.003906 -1.316406 C 22.511719 -2.988281 23.988281 -5.257812 23.988281 -6.851562 C 23.988281 -6.894531 23.945312 -7.132812 23.945312 -7.570312 C 23.90625 -8.007812 23.347656 -8.246094 22.273438 -8.246094 L 22.113281 -8.007812 C 21.796875 -7.449219 21.039062 -6.496094 19.921875 -6.496094 C 18.6875 -6.496094 18.765625 -7.25 18.765625 -7.648438 C 18.765625 -8.289062 19.046875 -9.363281 19.683594 -10.957031 C 20.320312 -12.75 20.800781 -14.464844 20.800781 -15.738281 C 20.800781 -15.976562 21.238281 -18.726562 16.972656 -18.726562 C 13.109375 -18.726562 9.960938 -16.617188 7.691406 -13.867188 C 8.6875 -17.613281 9.960938 -21.554688 11.515625 -25.738281 L 6.214844 -25.738281 L 5.539062 -24.34375 C 4.621094 -22.433594 3.1875 -19.285156 1.914062 -15.621094 C 0.636719 -11.953125 -0.199219 -8.40625 -0.199219 -5.65625 C -0.199219 -5.5 -0.199219 -5.300781 -0.199219 -5.140625 Z M -0.199219 -5.140625 "/></g></g></g><g fill="#ffffff" fill-opacity="1"><g transform="translate(95.620135, 52.569923)"><g><path d="M 0.796875 -1.953125 C 1.554688 -0.675781 2.828125 -0.0390625 4.582031 -0.0390625 C 6.773438 -0.0390625 8.605469 -1.316406 10.160156 -3.027344 C 10.519531 -1.234375 11.714844 -0.0390625 14.265625 -0.0390625 C 16.535156 -0.0390625 18.765625 -1.316406 20.359375 -2.949219 C 21.914062 -4.542969 22.511719 -5.976562 22.511719 -6.851562 C 22.511719 -7.050781 22.433594 -7.332031 22.3125 -7.691406 C 22.195312 -8.046875 21.714844 -8.246094 20.800781 -8.246094 L 20.640625 -8.007812 C 20.320312 -7.449219 19.5625 -6.496094 18.410156 -6.496094 C 17.730469 -6.496094 17.371094 -6.734375 17.332031 -7.25 C 17.292969 -7.730469 17.253906 -8.046875 17.253906 -8.246094 C 17.253906 -8.964844 17.371094 -9.882812 17.652344 -10.996094 C 18.167969 -13.1875 19.207031 -15.777344 19.882812 -17.492188 L 20.402344 -18.726562 L 15.101562 -18.726562 L 14.382812 -17.414062 C 13.707031 -18.210938 12.550781 -18.726562 10.679688 -18.726562 C 8.488281 -18.726562 6.613281 -18.089844 5.058594 -16.816406 C 3.464844 -15.539062 2.230469 -13.984375 1.316406 -12.152344 C 0.398438 -10.320312 -0.078125 -8.886719 -0.121094 -7.847656 C -0.199219 -6.8125 -0.199219 -6.175781 -0.199219 -5.976562 C -0.199219 -4.421875 0.121094 -3.066406 0.796875 -1.953125 Z M 6.335938 -7.890625 C 6.375 -8.804688 6.613281 -9.839844 7.132812 -10.996094 C 7.648438 -12.152344 8.289062 -13.1875 9.042969 -14.105469 C 9.800781 -15.023438 10.597656 -15.460938 11.433594 -15.460938 C 12.390625 -15.460938 12.3125 -14.703125 12.3125 -14.382812 C 12.3125 -14.066406 12.230469 -13.667969 12.113281 -13.1875 C 11.832031 -12.191406 11.234375 -10.835938 10.796875 -10.039062 L 10.199219 -8.964844 C 9.683594 -8.046875 8.40625 -6.496094 7.332031 -6.496094 C 6.652344 -6.496094 6.335938 -6.933594 6.335938 -7.769531 C 6.335938 -7.808594 6.335938 -7.847656 6.335938 -7.890625 Z M 6.335938 -7.890625 "/></g></g></g><g fill="#ffffff" fill-opacity="1"><g transform="translate(116.418372, 52.569923)"><g><path d="M 0.558594 -1.433594 C 1.15625 -0.519531 2.191406 -0.0390625 3.664062 -0.0390625 C 5.9375 -0.0390625 8.167969 -1.316406 9.761719 -2.949219 C 11.316406 -4.542969 11.914062 -5.976562 11.914062 -6.851562 C 11.914062 -7.050781 11.832031 -7.332031 11.714844 -7.691406 C 11.59375 -8.046875 11.078125 -8.246094 10.160156 -8.246094 L 10.039062 -8.007812 C 9.722656 -7.449219 8.925781 -6.496094 7.808594 -6.496094 C 7.171875 -6.496094 6.8125 -6.773438 6.773438 -7.292969 C 6.734375 -7.847656 6.695312 -8.207031 6.695312 -8.445312 C 6.695312 -9.960938 7.132812 -12.390625 8.089844 -15.460938 L 10.082031 -15.460938 L 10.957031 -18.726562 L 9.125 -18.726562 C 9.800781 -20.679688 10.398438 -22.351562 10.917969 -23.707031 L 11.714844 -25.738281 L 6.375 -25.738281 L 5.457031 -23.789062 C 4.820312 -22.472656 4.105469 -20.757812 3.265625 -18.726562 L 0.996094 -18.726562 L 0.121094 -15.460938 L 1.992188 -15.460938 C 1.355469 -13.667969 0.835938 -11.832031 0.398438 -10.039062 C -0.519531 -6.414062 -0.320312 -5.019531 -0.320312 -4.902344 C -0.320312 -3.464844 -0.0390625 -2.3125 0.558594 -1.433594 Z M 0.558594 -1.433594 "/></g></g></g><path stroke-linecap="butt" transform="matrix(0.958298, 0, 0, 0.958298, 122.419673, 23.392701)" fill="none" stroke-linejoin="miter" d="M 1.172178 38.868826 C 1.225169 40.197679 1.808071 41.591752 2.240152 42.439609 L 2.566251 43.128493 C 3.149153 43.075502 3.736131 43.022511 4.323109 43.022511 C 7.681928 43.022511 11.468751 44.249458 15.948535 46.018545 C 19.841341 47.673497 23.942035 49.157247 28.213931 49.157247 C 30.504776 49.157247 32.314625 48.570269 33.655707 47.347398 C 34.98456 46.124527 35.779426 45.003562 36.052534 43.935588 C 36.313413 42.920605 36.431624 42.125739 36.431624 41.591752 C 36.431624 40.731666 36.207431 39.769674 35.673444 38.819911 C 35.192448 37.853843 34.071483 37.372847 32.420607 37.372847 C 30.349879 39.300907 28.421819 40.303661 26.664961 40.417796 C 24.908103 40.576769 23.685232 40.62976 23.098254 40.62976 C 20.74219 40.62976 18.451345 40.303661 16.107509 39.769674 C 20.962306 37.853843 25.596987 33.80614 29.061788 29.000257 C 32.473598 24.19845 33.863595 19.885792 33.863595 16.734861 C 33.863595 16.151959 33.761689 15.1329 33.541572 13.808123 C 33.329608 12.467042 32.314625 11.19118 30.504776 9.862326 C 28.646012 8.574236 25.870095 7.934267 22.132186 7.934267 C 18.137474 7.934267 15.039535 8.574236 12.956578 9.915318 C 10.82063 11.240094 9.544768 12.687158 9.112687 14.117917 C 8.696911 15.564981 8.423803 16.787852 8.423803 17.700929 C 8.423803 18.703684 8.696911 19.938783 9.177907 21.422533 C 9.646674 22.869597 10.612742 24.247365 12.161712 25.588447 C 13.710682 26.9173 15.46754 27.622489 17.550496 27.622489 C 20.322337 27.622489 21.704181 26.330322 22.344151 24.781352 C 22.980043 23.244611 22.878138 22.229628 22.878138 21.95652 C 22.878138 21.320627 22.825147 20.839631 22.772155 20.354559 L 22.617258 19.563769 C 22.132186 19.820572 21.598199 19.991774 21.117203 19.991774 C 20.428319 19.991774 19.140229 19.665675 18.137474 18.116705 C 16.588505 15.825861 16.849384 12.361059 22.617258 12.361059 C 24.802121 12.361059 26.130974 12.842055 26.61197 13.857038 C 27.044051 14.876097 27.251939 15.719878 27.251939 16.579964 C 27.251939 18.336822 26.558979 21.540744 23.253151 26.228416 C 19.947323 30.981308 15.08845 35.510007 9.699665 38.114722 L 8.95779 37.906834 C 6.340846 36.993757 4.425015 36.577981 3.308126 36.577981 C 1.600183 36.577981 1.172178 37.527744 1.172178 38.546803 C 1.172178 38.648709 1.172178 38.76692 1.172178 38.868826 Z M 1.172178 38.868826 " stroke="#219ebc" stroke-width="2.466665" stroke-opacity="1" stroke-miterlimit="4"/><g fill="#ffffff" fill-opacity="1"><g transform="translate(122.419673, 70.349311)"><g><path d="M 1.125 -9.710938 C 1.175781 -8.433594 1.738281 -7.105469 2.144531 -6.285156 L 2.453125 -5.621094 C 3.015625 -5.671875 3.578125 -5.722656 4.140625 -5.722656 C 7.359375 -5.722656 10.988281 -4.546875 15.28125 -2.863281 C 19.011719 -1.277344 22.945312 0.152344 27.035156 0.152344 C 29.234375 0.152344 30.96875 -0.410156 32.246094 -1.585938 C 33.527344 -2.757812 34.292969 -3.832031 34.546875 -4.855469 C 34.804688 -5.824219 34.90625 -6.59375 34.90625 -7.105469 C 34.90625 -7.921875 34.699219 -8.839844 34.191406 -9.761719 C 33.730469 -10.679688 32.65625 -11.140625 31.074219 -11.140625 C 29.078125 -9.300781 27.238281 -8.332031 25.554688 -8.226562 C 23.867188 -8.074219 22.691406 -8.023438 22.128906 -8.023438 C 19.878906 -8.023438 17.683594 -8.332031 15.433594 -8.839844 C 20.085938 -10.679688 24.53125 -14.566406 27.851562 -19.164062 C 31.125 -23.765625 32.453125 -27.902344 32.453125 -30.917969 C 32.453125 -31.480469 32.351562 -32.453125 32.144531 -33.730469 C 31.941406 -35.007812 30.96875 -36.234375 29.234375 -37.511719 C 27.445312 -38.738281 24.785156 -39.351562 21.210938 -39.351562 C 17.375 -39.351562 14.410156 -38.738281 12.417969 -37.460938 C 10.375 -36.183594 9.148438 -34.804688 8.738281 -33.421875 C 8.332031 -32.042969 8.074219 -30.867188 8.074219 -30 C 8.074219 -29.027344 8.332031 -27.851562 8.789062 -26.421875 C 9.25 -25.042969 10.171875 -23.714844 11.652344 -22.4375 C 13.132812 -21.15625 14.820312 -20.492188 16.8125 -20.492188 C 19.472656 -20.492188 20.800781 -21.71875 21.414062 -23.203125 C 22.027344 -24.683594 21.925781 -25.65625 21.925781 -25.910156 C 21.925781 -26.523438 21.875 -26.984375 21.824219 -27.445312 L 21.667969 -28.210938 C 21.210938 -27.953125 20.699219 -27.800781 20.238281 -27.800781 C 19.574219 -27.800781 18.347656 -28.109375 17.375 -29.589844 C 15.894531 -31.789062 16.148438 -35.109375 21.667969 -35.109375 C 23.765625 -35.109375 25.042969 -34.648438 25.5 -33.679688 C 25.910156 -32.707031 26.113281 -31.890625 26.113281 -31.074219 C 26.113281 -29.386719 25.449219 -26.320312 22.28125 -21.824219 C 19.113281 -17.273438 14.464844 -12.929688 9.300781 -10.425781 L 8.585938 -10.628906 C 6.082031 -11.5 4.242188 -11.90625 3.167969 -11.90625 C 1.53125 -11.90625 1.125 -10.988281 1.125 -10.015625 C 1.125 -9.914062 1.125 -9.8125 1.125 -9.710938 Z M 1.125 -9.710938 "/></g></g></g><path stroke-linecap="butt" transform="matrix(0.747137, 0, 0, 0.747137, 67.039416, 57.036145)" fill="none" stroke-linejoin="miter" d="M 0.856966 25.214715 C 1.981048 29.637847 5.118022 32.842788 10.299256 32.842788 C 19.621295 32.842788 20.912683 26.762288 20.912683 24.315449 L 20.912683 23.348215 C 20.102298 23.557347 19.464447 23.661913 18.878878 23.661913 C 18.29331 23.661913 17.707742 23.505064 17.174456 23.196595 C 16.055602 22.543059 16.212451 21.371922 16.212451 21.215073 C 16.212451 19.772066 17.174456 18.182666 19.255315 18.182666 C 23.03014 18.182666 24.049656 20.629505 24.049656 23.782163 C 24.049656 24.03835 24.049656 24.676201 23.997373 25.748 C 23.94509 26.866854 23.568654 28.571276 22.977857 30.91355 C 22.392289 33.271508 21.702154 35.666064 20.959737 38.112904 C 19.621295 42.227567 18.826595 45.265203 18.554724 47.13693 C 18.29331 48.998201 18.136461 50.169338 18.136461 50.707852 C 18.136461 52.788711 18.931161 54.064413 20.426452 54.545416 C 21.221152 54.702265 22.031537 54.80683 22.773954 54.80683 C 25.440381 54.80683 27.991786 53.687977 30.558876 51.565291 C 33.120738 49.379866 35.572805 46.174925 37.967361 41.955696 C 40.377603 37.752152 42.563028 33.219225 44.63343 28.46671 C 43.995579 31.514803 43.148596 34.756342 42.082025 38.112904 C 40.738355 42.227567 39.943655 45.265203 39.671784 47.13693 C 39.410369 48.998201 39.253521 50.169338 39.253521 50.707852 C 39.253521 52.788711 40.048221 54.064413 41.548739 54.545416 C 42.238874 54.702265 42.876725 54.754547 43.566859 54.754547 C 45.386304 54.754547 47.35214 54.168979 49.49051 53.050125 C 51.675935 51.931271 53.913643 50.017718 56.313428 47.346062 C 58.666158 44.731917 60.856811 41.641999 62.822647 38.180871 C 64.798941 34.704059 66.508591 31.0338 67.88886 27.243291 C 70.60757 19.6675 71.245421 14.172568 71.245421 10.706213 C 71.245421 9.158639 71.036289 7.349651 70.659853 5.211281 C 70.293872 3.025856 69.279584 1.060019 67.522879 -0.696686 C 65.750489 -2.469076 63.199084 -3.316059 59.94186 -3.316059 C 53.762023 -3.316059 50.985801 1.854719 50.985801 5.211281 C 50.985801 5.436097 50.985801 5.901415 51.038084 6.7118 C 51.090367 7.5065 51.623652 8.416222 52.585658 9.325944 C 53.484923 10.277493 54.880876 10.758495 56.742147 10.758495 L 56.898996 10.329776 C 57.118584 9.535076 58.185155 7.882936 60.375808 7.882936 C 61.808359 7.882936 62.613516 8.625354 62.665799 10.068361 C 62.718082 11.516597 62.718082 12.36358 62.718082 12.635451 C 62.718082 15.134573 62.237079 18.234949 61.217563 21.905208 C 60.203275 25.591151 58.603418 29.376433 56.533016 33.219225 C 54.399874 37.046333 51.832784 40.251274 48.852659 42.760852 C 49.647359 41.641999 50.504799 39.56114 51.414521 36.408481 C 52.313787 33.271508 52.951638 30.275698 53.328075 27.400139 C 53.657457 24.52458 53.86136 22.229362 53.86136 20.524939 C 53.86136 18.44408 53.70974 16.462559 53.380358 14.549005 L 41.376206 14.549005 C 40.686072 16.410276 39.943655 18.339515 39.253521 20.253068 C 37.601381 25.005583 35.844676 29.428716 33.96772 33.532922 C 32.10645 37.699869 30.02559 40.784559 27.730372 42.760852 C 29.006074 41.004147 30.768008 36.251633 31.939144 30.275698 C 33.120738 24.367732 32.848867 21.110508 32.848867 20.838637 C 32.848867 17.910795 32.420147 15.08229 31.573164 12.468146 C 30.663442 9.85923 29.178608 7.673805 27.040237 6.021666 C 24.907096 4.369526 21.911286 3.506859 18.084178 3.506859 C 11.250805 3.506859 6.289158 6.659517 3.465882 11.087878 C 2.033331 13.325585 1.170663 15.343705 0.856966 17.116095 C 0.532812 18.925083 0.375964 20.305351 0.375964 21.371922 C 0.375964 22.710364 0.532812 23.986067 0.856966 25.214715 Z M 66.492906 42.436699 C 67.355574 46.227208 70.283416 48.945918 75.778348 48.945918 C 78.821212 48.945918 81.430128 48.36035 83.667836 47.241496 C 88.096197 45.003788 90.553492 41.903413 90.553492 39.665705 C 90.553492 39.665705 90.501209 39.404291 90.501209 38.818723 C 90.501209 38.233154 89.800619 37.961283 88.368068 37.961283 L 87.406062 38.546852 C 86.078077 39.352008 83.720119 40.303557 80.792277 40.303557 C 77.963772 40.303557 76.416199 39.352008 75.830631 37.909 C 79.239475 37.647586 81.858848 36.784918 83.615553 35.34191 C 85.372258 33.909359 86.28198 32.68594 86.438829 31.619369 C 86.611362 30.605081 86.715928 29.862663 86.715928 29.533281 C 86.715928 28.205296 86.229697 26.919137 85.267692 25.748 C 84.316144 24.52458 82.716287 23.939012 80.478579 23.939012 C 75.621499 23.939012 71.674141 26.605439 69.112279 30.380264 C 66.560874 34.223057 66.179209 37.527335 66.126926 39.508857 C 66.179209 40.523145 66.283775 41.474693 66.492906 42.436699 Z M 75.621499 35.028213 C 75.997936 33.323791 76.740353 31.776217 77.963772 30.380264 C 79.134909 28.999996 80.306046 28.309862 81.430128 28.309862 C 82.235285 28.309862 82.664004 28.738581 82.664004 29.637847 C 82.664004 29.69013 82.601265 29.914946 82.601265 30.380264 C 82.601265 30.861267 82.078436 31.671651 80.943897 32.738222 C 79.825043 33.804793 78.068338 34.54721 75.621499 35.028213 Z M 89.377127 46.384057 C 90.396644 48.088479 92.101066 48.945918 94.443339 48.945918 C 97.371181 48.945918 99.833705 47.241496 101.904108 44.951506 C 102.38511 47.346062 103.984967 48.945918 107.39904 48.945918 C 110.447132 48.945918 113.427257 47.241496 115.560399 45.056071 C 117.646486 42.917701 118.441186 41.004147 118.441186 39.822554 C 118.441186 39.56114 118.33662 39.184703 118.179772 38.7037 C 118.012466 38.233154 117.369387 37.961283 116.145967 37.961283 L 115.942064 38.285437 C 115.508116 39.027854 114.493828 40.303557 112.946254 40.303557 C 112.046989 40.303557 111.565986 39.989859 111.513703 39.299725 C 111.46142 38.651417 111.409137 38.233154 111.409137 37.961283 C 111.409137 36.99405 111.565986 35.77063 111.942423 34.285796 C 112.632557 31.342269 114.012825 27.881142 114.922547 25.591151 L 115.612682 23.939012 L 108.517893 23.939012 L 107.566345 25.695717 C 106.656623 24.623918 105.109049 23.939012 102.604699 23.939012 C 99.6664 23.939012 97.167278 24.780767 95.081191 26.490417 C 92.948049 28.205296 91.290681 30.275698 90.067261 32.738222 C 88.843842 35.185062 88.205991 37.1143 88.153708 38.494569 C 88.049142 39.885294 88.049142 40.732276 88.049142 41.004147 C 88.049142 43.07455 88.467405 44.899223 89.377127 46.384057 Z M 96.785613 38.442286 C 96.837896 37.218866 97.167278 35.822913 97.857412 34.285796 C 98.547546 32.738222 99.404986 31.342269 100.419274 30.11885 C 101.433562 28.89543 102.505361 28.309862 103.624215 28.309862 C 104.899917 28.309862 104.795352 29.32415 104.795352 29.742413 C 104.795352 30.171133 104.675101 30.704418 104.523481 31.342269 C 104.1575 32.68594 103.347116 34.494928 102.761547 35.561499 L 101.966847 36.99405 C 101.266257 38.233154 99.561834 40.303557 98.129283 40.303557 C 97.214333 40.303557 96.785613 39.717988 96.785613 38.599134 C 96.785613 38.546852 96.785613 38.494569 96.785613 38.442286 Z M 116.888384 47.084647 C 117.698769 48.308067 119.079037 48.945918 121.05533 48.945918 C 124.092966 48.945918 127.083548 47.241496 129.221918 45.056071 C 131.29232 42.917701 132.097477 41.004147 132.097477 39.822554 C 132.097477 39.56114 131.992911 39.184703 131.825606 38.7037 C 131.668757 38.233154 130.978623 37.961283 129.739519 37.961283 L 129.58267 38.285437 C 129.15395 39.027854 128.103064 40.303557 126.602545 40.303557 C 125.745106 40.303557 125.264103 39.937576 125.21182 39.236986 C 125.159537 38.494569 125.107254 38.013566 125.107254 37.699869 C 125.107254 35.666064 125.692823 32.414069 126.968525 28.309862 L 129.634953 28.309862 L 130.811318 23.939012 L 128.35925 23.939012 C 129.274201 21.319639 130.068901 19.081932 130.759035 17.267715 L 131.825606 14.549005 L 124.678535 14.549005 L 123.455115 17.168378 C 122.608132 18.925083 121.640899 21.215073 120.522045 23.939012 L 117.473952 23.939012 L 116.302816 28.309862 L 118.817623 28.309862 C 117.960183 30.704418 117.270049 33.156486 116.684481 35.561499 C 115.455833 40.418579 115.717247 42.27985 115.717247 42.436699 C 115.717247 44.365937 116.098912 45.903054 116.888384 47.084647 Z M 129.540844 42.123001 C 129.749975 46.174925 131.50668 48.945918 136.039607 48.945918 L 137.430332 45.798488 C 138.329597 43.712401 139.500734 41.317845 140.943742 38.599134 C 142.391978 35.927479 143.824529 33.532922 145.372103 31.446835 C 146.867393 29.376433 148.195379 28.309862 149.371744 28.309862 C 149.695898 28.309862 149.852746 28.46671 149.852746 28.843147 C 149.852746 29.32415 149.539049 30.380264 148.247662 33.376074 C 147.557527 34.923647 146.919676 36.633298 146.334108 38.390003 C 145.047949 41.955696 145.162971 43.660118 145.162971 44.094066 C 145.162971 45.369769 145.528951 46.551362 146.334108 47.502911 C 147.076525 48.464916 148.629327 48.945918 150.919317 48.945918 C 153.000176 48.945918 154.861447 48.36035 156.571098 47.241496 C 159.927659 45.003788 161.909181 41.955696 161.909181 39.822554 C 161.909181 39.770271 161.856898 39.456574 161.856898 38.871005 C 161.804615 38.285437 161.046513 37.961283 159.613962 37.961283 L 159.394374 38.285437 C 158.976111 39.027854 157.961823 40.303557 156.466532 40.303557 C 154.814393 40.303557 154.91373 39.299725 154.91373 38.76644 C 154.91373 37.909 155.295395 36.460764 156.142378 34.338079 C 156.999817 31.933066 157.637669 29.637847 157.637669 27.933425 C 157.637669 27.619728 158.223237 23.939012 152.519174 23.939012 C 147.353624 23.939012 143.134395 26.762288 140.096759 30.448232 C 141.424744 25.434303 143.134395 20.148503 145.215254 14.549005 L 138.120466 14.549005 L 137.210744 16.410276 C 135.987324 18.977366 134.068542 23.196595 132.36412 28.090274 C 130.659697 32.999637 129.540844 37.752152 129.540844 41.42241 C 129.540844 41.641999 129.540844 41.903413 129.540844 42.123001 Z M 159.870148 42.436699 C 160.732816 46.227208 163.660658 48.945918 169.155589 48.945918 C 172.203682 48.945918 174.80737 48.36035 177.045077 47.241496 C 181.473438 45.003788 183.930734 41.903413 183.930734 39.665705 C 183.930734 39.665705 183.878451 39.404291 183.878451 38.818723 C 183.878451 38.233154 183.177861 37.961283 181.745309 37.961283 L 180.783304 38.546852 C 179.455319 39.352008 177.09736 40.303557 174.169519 40.303557 C 171.341014 40.303557 169.793441 39.352008 169.207872 37.909 C 172.616717 37.647586 175.236089 36.784918 176.992795 35.34191 C 178.7495 33.909359 179.659222 32.68594 179.816071 31.619369 C 179.988604 30.605081 180.09317 29.862663 180.09317 29.533281 C 180.09317 28.205296 179.612167 26.919137 178.644934 25.748 C 177.693385 24.52458 176.093529 23.939012 173.855821 23.939012 C 168.998741 23.939012 165.051383 26.605439 162.489521 30.380264 C 159.938116 34.223057 159.556451 37.527335 159.504168 39.508857 C 159.556451 40.523145 159.661017 41.474693 159.870148 42.436699 Z M 168.998741 35.028213 C 169.375178 33.323791 170.117595 31.776217 171.341014 30.380264 C 172.512151 28.999996 173.683288 28.309862 174.80737 28.309862 C 175.612526 28.309862 176.041246 28.738581 176.041246 29.637847 C 176.041246 29.69013 175.978507 29.914946 175.978507 30.380264 C 175.978507 30.861267 175.455678 31.671651 174.321139 32.738222 C 173.202285 33.804793 171.44558 34.54721 168.998741 35.028213 Z M 180.830359 45.537074 C 183.136034 43.247083 185.321459 40.35584 187.339579 36.837201 C 189.315872 33.323791 190.868674 30.380264 191.872505 27.985708 C 193.210947 28.205296 194.810804 28.309862 196.62502 28.309862 C 196.933489 28.309862 197.106022 28.46671 197.106022 28.843147 C 197.106022 29.32415 196.77664 30.380264 195.553221 33.376074 C 194.863086 34.923647 194.225235 36.633298 193.639667 38.390003 C 192.353508 41.955696 192.458074 43.660118 192.458074 44.094066 C 192.458074 45.369769 192.83451 46.551362 193.639667 47.502911 C 194.382084 48.464916 195.934886 48.945918 198.224876 48.945918 C 200.305735 48.945918 202.167006 48.36035 203.876657 47.241496 C 207.233218 45.003788 209.21474 41.955696 209.21474 39.822554 C 209.21474 39.770271 209.146772 39.456574 209.146772 38.871005 C 209.094489 38.285437 208.352072 37.961283 206.909064 37.961283 L 206.699933 38.285437 C 206.271213 39.027854 205.319664 40.303557 203.719808 40.303557 C 202.167006 40.303557 202.219289 39.299725 202.219289 38.76644 C 202.219289 37.909 202.600954 36.460764 203.390426 34.338079 C 204.305376 31.933066 204.943228 29.637847 204.943228 27.933425 C 204.943228 27.619728 205.528796 23.939012 199.824733 23.939012 C 192.782227 23.939012 191.924788 22.072513 191.924788 20.953659 C 191.924788 20.577222 192.301225 19.562934 192.939076 18.768234 L 193.210947 18.496363 L 185.206437 17.063812 L 184.892739 17.701663 C 184.411737 18.595701 183.925506 20.043937 183.925506 21.476488 C 183.925506 21.539227 183.496786 24.576863 187.18273 26.605439 C 183.878451 35.028213 181.583232 38.33772 180.621227 39.299725 L 180.140225 39.770271 Z M 180.830359 45.537074 " stroke="#219ebc" stroke-width="2.466665" stroke-opacity="1" stroke-miterlimit="4"/><g fill="#ffffff" fill-opacity="1"><g transform="translate(67.039416, 93.645875)"><g><path d="M 0.636719 -17.769531 C 1.472656 -14.464844 3.824219 -12.074219 7.691406 -12.074219 C 14.664062 -12.074219 15.621094 -16.617188 15.621094 -18.449219 L 15.621094 -19.164062 C 15.023438 -19.007812 14.542969 -18.925781 14.105469 -18.925781 C 13.667969 -18.925781 13.226562 -19.046875 12.828125 -19.285156 C 11.992188 -19.761719 12.113281 -20.640625 12.113281 -20.757812 C 12.113281 -21.835938 12.828125 -23.03125 14.382812 -23.03125 C 17.214844 -23.03125 17.96875 -21.199219 17.96875 -18.847656 C 17.96875 -18.648438 17.96875 -18.167969 17.929688 -17.371094 C 17.890625 -16.535156 17.613281 -15.261719 17.171875 -13.507812 C 16.734375 -11.753906 16.21875 -9.960938 15.660156 -8.128906 C 14.664062 -5.058594 14.066406 -2.789062 13.867188 -1.394531 C 13.667969 0 13.546875 0.875 13.546875 1.273438 C 13.546875 2.828125 14.144531 3.785156 15.261719 4.144531 C 15.859375 4.261719 16.457031 4.34375 17.015625 4.34375 C 19.007812 4.34375 20.917969 3.507812 22.832031 1.914062 C 24.742188 0.277344 26.578125 -2.113281 28.371094 -5.257812 C 30.164062 -8.40625 31.796875 -11.792969 33.351562 -15.339844 C 32.871094 -13.070312 32.234375 -10.636719 31.4375 -8.128906 C 30.441406 -5.058594 29.84375 -2.789062 29.644531 -1.394531 C 29.445312 0 29.324219 0.875 29.324219 1.273438 C 29.324219 2.828125 29.921875 3.785156 31.039062 4.144531 C 31.558594 4.261719 32.035156 4.304688 32.554688 4.304688 C 33.90625 4.304688 35.382812 3.863281 36.976562 3.027344 C 38.609375 2.191406 40.28125 0.757812 42.074219 -1.234375 C 43.828125 -3.1875 45.464844 -5.5 46.9375 -8.089844 C 48.410156 -10.679688 49.6875 -13.425781 50.722656 -16.257812 C 52.753906 -21.914062 53.234375 -26.019531 53.234375 -28.609375 C 53.234375 -29.765625 53.074219 -31.117188 52.792969 -32.710938 C 52.515625 -34.347656 51.757812 -35.820312 50.445312 -37.136719 C 49.128906 -38.449219 47.214844 -39.085938 44.785156 -39.085938 C 40.164062 -39.085938 38.089844 -35.222656 38.089844 -32.710938 C 38.089844 -32.554688 38.089844 -32.195312 38.132812 -31.597656 C 38.171875 -31 38.570312 -30.320312 39.285156 -29.644531 C 39.964844 -28.925781 41 -28.570312 42.394531 -28.570312 L 42.515625 -28.886719 C 42.671875 -29.484375 43.472656 -30.71875 45.105469 -30.71875 C 46.179688 -30.71875 46.777344 -30.164062 46.816406 -29.085938 C 46.859375 -28.011719 46.859375 -27.375 46.859375 -27.175781 C 46.859375 -25.300781 46.5 -22.992188 45.742188 -20.242188 C 44.984375 -17.492188 43.789062 -14.664062 42.234375 -11.792969 C 40.640625 -8.925781 38.730469 -6.535156 36.496094 -4.660156 C 37.09375 -5.5 37.734375 -7.050781 38.410156 -9.402344 C 39.085938 -11.753906 39.566406 -13.984375 39.84375 -16.136719 C 40.082031 -18.289062 40.242188 -20.003906 40.242188 -21.277344 C 40.242188 -22.832031 40.125 -24.304688 39.882812 -25.738281 L 30.917969 -25.738281 C 30.402344 -24.34375 29.84375 -22.910156 29.324219 -21.476562 C 28.089844 -17.929688 26.777344 -14.625 25.382812 -11.554688 C 23.988281 -8.445312 22.433594 -6.136719 20.71875 -4.660156 C 21.675781 -5.976562 22.992188 -9.523438 23.867188 -13.984375 C 24.742188 -18.410156 24.542969 -20.839844 24.542969 -21.039062 C 24.542969 -23.230469 24.226562 -25.339844 23.589844 -27.292969 C 22.910156 -29.246094 21.796875 -30.878906 20.203125 -32.113281 C 18.609375 -33.351562 16.375 -33.988281 13.507812 -33.988281 C 8.40625 -33.988281 4.703125 -31.636719 2.589844 -28.328125 C 1.515625 -26.65625 0.875 -25.140625 0.636719 -23.828125 C 0.398438 -22.472656 0.277344 -21.4375 0.277344 -20.640625 C 0.277344 -19.644531 0.398438 -18.6875 0.636719 -17.769531 Z M 0.636719 -17.769531 "/></g></g></g><g fill="#ffffff" fill-opacity="1"><g transform="translate(116.524885, 93.645875)"><g><path d="M 0.199219 -4.902344 C 0.835938 -2.070312 3.027344 -0.0390625 7.132812 -0.0390625 C 9.402344 -0.0390625 11.355469 -0.476562 13.027344 -1.316406 C 16.335938 -2.988281 18.167969 -5.300781 18.167969 -6.972656 C 18.167969 -6.972656 18.128906 -7.171875 18.128906 -7.609375 C 18.128906 -8.046875 17.613281 -8.246094 16.535156 -8.246094 L 15.820312 -7.808594 C 14.824219 -7.210938 13.070312 -6.496094 10.878906 -6.496094 C 8.765625 -6.496094 7.609375 -7.210938 7.171875 -8.289062 C 9.722656 -8.488281 11.675781 -9.125 12.988281 -10.199219 C 14.304688 -11.277344 14.980469 -12.191406 15.101562 -12.988281 C 15.222656 -13.746094 15.300781 -14.304688 15.300781 -14.542969 C 15.300781 -15.539062 14.941406 -16.496094 14.222656 -17.371094 C 13.507812 -18.289062 12.3125 -18.726562 10.636719 -18.726562 C 7.011719 -18.726562 4.0625 -16.734375 2.152344 -13.90625 C 0.238281 -11.035156 -0.0390625 -8.566406 -0.078125 -7.09375 C -0.0390625 -6.335938 0.0390625 -5.617188 0.199219 -4.902344 Z M 7.011719 -10.4375 C 7.292969 -11.714844 7.847656 -12.871094 8.765625 -13.90625 C 9.640625 -14.941406 10.519531 -15.460938 11.355469 -15.460938 C 11.953125 -15.460938 12.273438 -15.140625 12.273438 -14.464844 C 12.273438 -14.425781 12.230469 -14.265625 12.230469 -13.90625 C 12.230469 -13.546875 11.832031 -12.949219 10.996094 -12.152344 C 10.160156 -11.355469 8.84375 -10.796875 7.011719 -10.4375 Z M 7.011719 -10.4375 "/></g></g></g><g fill="#ffffff" fill-opacity="1"><g transform="translate(133.020038, 93.645875)"><g><path d="M 0.796875 -1.953125 C 1.554688 -0.675781 2.828125 -0.0390625 4.582031 -0.0390625 C 6.773438 -0.0390625 8.605469 -1.316406 10.160156 -3.027344 C 10.519531 -1.234375 11.714844 -0.0390625 14.265625 -0.0390625 C 16.535156 -0.0390625 18.765625 -1.316406 20.359375 -2.949219 C 21.914062 -4.542969 22.511719 -5.976562 22.511719 -6.851562 C 22.511719 -7.050781 22.433594 -7.332031 22.3125 -7.691406 C 22.195312 -8.046875 21.714844 -8.246094 20.800781 -8.246094 L 20.640625 -8.007812 C 20.320312 -7.449219 19.5625 -6.496094 18.410156 -6.496094 C 17.730469 -6.496094 17.371094 -6.734375 17.332031 -7.25 C 17.292969 -7.730469 17.253906 -8.046875 17.253906 -8.246094 C 17.253906 -8.964844 17.371094 -9.882812 17.652344 -10.996094 C 18.167969 -13.1875 19.207031 -15.777344 19.882812 -17.492188 L 20.402344 -18.726562 L 15.101562 -18.726562 L 14.382812 -17.414062 C 13.707031 -18.210938 12.550781 -18.726562 10.679688 -18.726562 C 8.488281 -18.726562 6.613281 -18.089844 5.058594 -16.816406 C 3.464844 -15.539062 2.230469 -13.984375 1.316406 -12.152344 C 0.398438 -10.320312 -0.078125 -8.886719 -0.121094 -7.847656 C -0.199219 -6.8125 -0.199219 -6.175781 -0.199219 -5.976562 C -0.199219 -4.421875 0.121094 -3.066406 0.796875 -1.953125 Z M 6.335938 -7.890625 C 6.375 -8.804688 6.613281 -9.839844 7.132812 -10.996094 C 7.648438 -12.152344 8.289062 -13.1875 9.042969 -14.105469 C 9.800781 -15.023438 10.597656 -15.460938 11.433594 -15.460938 C 12.390625 -15.460938 12.3125 -14.703125 12.3125 -14.382812 C 12.3125 -14.066406 12.230469 -13.667969 12.113281 -13.1875 C 11.832031 -12.191406 11.234375 -10.835938 10.796875 -10.039062 L 10.199219 -8.964844 C 9.683594 -8.046875 8.40625 -6.496094 7.332031 -6.496094 C 6.652344 -6.496094 6.335938 -6.933594 6.335938 -7.769531 C 6.335938 -7.808594 6.335938 -7.847656 6.335938 -7.890625 Z M 6.335938 -7.890625 "/></g></g></g><g fill="#ffffff" fill-opacity="1"><g transform="translate(153.818275, 93.645875)"><g><path d="M 0.558594 -1.433594 C 1.15625 -0.519531 2.191406 -0.0390625 3.664062 -0.0390625 C 5.9375 -0.0390625 8.167969 -1.316406 9.761719 -2.949219 C 11.316406 -4.542969 11.914062 -5.976562 11.914062 -6.851562 C 11.914062 -7.050781 11.832031 -7.332031 11.714844 -7.691406 C 11.59375 -8.046875 11.078125 -8.246094 10.160156 -8.246094 L 10.039062 -8.007812 C 9.722656 -7.449219 8.925781 -6.496094 7.808594 -6.496094 C 7.171875 -6.496094 6.8125 -6.773438 6.773438 -7.292969 C 6.734375 -7.847656 6.695312 -8.207031 6.695312 -8.445312 C 6.695312 -9.960938 7.132812 -12.390625 8.089844 -15.460938 L 10.082031 -15.460938 L 10.957031 -18.726562 L 9.125 -18.726562 C 9.800781 -20.679688 10.398438 -22.351562 10.917969 -23.707031 L 11.714844 -25.738281 L 6.375 -25.738281 L 5.457031 -23.789062 C 4.820312 -22.472656 4.105469 -20.757812 3.265625 -18.726562 L 0.996094 -18.726562 L 0.121094 -15.460938 L 1.992188 -15.460938 C 1.355469 -13.667969 0.835938 -11.832031 0.398438 -10.039062 C -0.519531 -6.414062 -0.320312 -5.019531 -0.320312 -4.902344 C -0.320312 -3.464844 -0.0390625 -2.3125 0.558594 -1.433594 Z M 0.558594 -1.433594 "/></g></g></g><g fill="#ffffff" fill-opacity="1"><g transform="translate(164.018177, 93.645875)"><g><path d="M -0.199219 -5.140625 C -0.0390625 -2.113281 1.273438 -0.0390625 4.660156 -0.0390625 L 5.699219 -2.390625 C 6.375 -3.945312 7.25 -5.738281 8.328125 -7.769531 C 9.402344 -9.761719 10.480469 -11.554688 11.632812 -13.109375 C 12.75 -14.664062 13.746094 -15.460938 14.625 -15.460938 C 14.863281 -15.460938 14.980469 -15.339844 14.980469 -15.0625 C 14.980469 -14.703125 14.742188 -13.90625 13.785156 -11.675781 C 13.269531 -10.519531 12.789062 -9.242188 12.351562 -7.929688 C 11.394531 -5.257812 11.476562 -3.984375 11.476562 -3.664062 C 11.476562 -2.710938 11.753906 -1.832031 12.351562 -1.117188 C 12.910156 -0.398438 14.066406 -0.0390625 15.777344 -0.0390625 C 17.332031 -0.0390625 18.726562 -0.476562 20.003906 -1.316406 C 22.511719 -2.988281 23.988281 -5.257812 23.988281 -6.851562 C 23.988281 -6.894531 23.945312 -7.132812 23.945312 -7.570312 C 23.90625 -8.007812 23.347656 -8.246094 22.273438 -8.246094 L 22.113281 -8.007812 C 21.796875 -7.449219 21.039062 -6.496094 19.921875 -6.496094 C 18.6875 -6.496094 18.765625 -7.25 18.765625 -7.648438 C 18.765625 -8.289062 19.046875 -9.363281 19.683594 -10.957031 C 20.320312 -12.75 20.800781 -14.464844 20.800781 -15.738281 C 20.800781 -15.976562 21.238281 -18.726562 16.972656 -18.726562 C 13.109375 -18.726562 9.960938 -16.617188 7.691406 -13.867188 C 8.6875 -17.613281 9.960938 -21.554688 11.515625 -25.738281 L 6.214844 -25.738281 L 5.539062 -24.34375 C 4.621094 -22.433594 3.1875 -19.285156 1.914062 -15.621094 C 0.636719 -11.953125 -0.199219 -8.40625 -0.199219 -5.65625 C -0.199219 -5.5 -0.199219 -5.300781 -0.199219 -5.140625 Z M -0.199219 -5.140625 "/></g></g></g><g fill="#ffffff" fill-opacity="1"><g transform="translate(186.290625, 93.645875)"><g><path d="M 0.199219 -4.902344 C 0.835938 -2.070312 3.027344 -0.0390625 7.132812 -0.0390625 C 9.402344 -0.0390625 11.355469 -0.476562 13.027344 -1.316406 C 16.335938 -2.988281 18.167969 -5.300781 18.167969 -6.972656 C 18.167969 -6.972656 18.128906 -7.171875 18.128906 -7.609375 C 18.128906 -8.046875 17.613281 -8.246094 16.535156 -8.246094 L 15.820312 -7.808594 C 14.824219 -7.210938 13.070312 -6.496094 10.878906 -6.496094 C 8.765625 -6.496094 7.609375 -7.210938 7.171875 -8.289062 C 9.722656 -8.488281 11.675781 -9.125 12.988281 -10.199219 C 14.304688 -11.277344 14.980469 -12.191406 15.101562 -12.988281 C 15.222656 -13.746094 15.300781 -14.304688 15.300781 -14.542969 C 15.300781 -15.539062 14.941406 -16.496094 14.222656 -17.371094 C 13.507812 -18.289062 12.3125 -18.726562 10.636719 -18.726562 C 7.011719 -18.726562 4.0625 -16.734375 2.152344 -13.90625 C 0.238281 -11.035156 -0.0390625 -8.566406 -0.078125 -7.09375 C -0.0390625 -6.335938 0.0390625 -5.617188 0.199219 -4.902344 Z M 7.011719 -10.4375 C 7.292969 -11.714844 7.847656 -12.871094 8.765625 -13.90625 C 9.640625 -14.941406 10.519531 -15.460938 11.355469 -15.460938 C 11.953125 -15.460938 12.273438 -15.140625 12.273438 -14.464844 C 12.273438 -14.425781 12.230469 -14.265625 12.230469 -13.90625 C 12.230469 -13.546875 11.832031 -12.949219 10.996094 -12.152344 C 10.160156 -11.355469 8.84375 -10.796875 7.011719 -10.4375 Z M 7.011719 -10.4375 "/></g></g></g><g fill="#ffffff" fill-opacity="1"><g transform="translate(202.785777, 93.645875)"><g><path d="M -0.636719 -2.589844 C 1.074219 -4.304688 2.710938 -6.453125 4.222656 -9.085938 C 5.699219 -11.714844 6.851562 -13.90625 7.609375 -15.699219 C 8.605469 -15.539062 9.800781 -15.460938 11.15625 -15.460938 C 11.394531 -15.460938 11.515625 -15.339844 11.515625 -15.0625 C 11.515625 -14.703125 11.277344 -13.90625 10.359375 -11.675781 C 9.839844 -10.519531 9.363281 -9.242188 8.925781 -7.929688 C 7.96875 -5.257812 8.046875 -3.984375 8.046875 -3.664062 C 8.046875 -2.710938 8.328125 -1.832031 8.925781 -1.117188 C 9.484375 -0.398438 10.636719 -0.0390625 12.351562 -0.0390625 C 13.90625 -0.0390625 15.300781 -0.476562 16.574219 -1.316406 C 19.085938 -2.988281 20.558594 -5.257812 20.558594 -6.851562 C 20.558594 -6.894531 20.519531 -7.132812 20.519531 -7.570312 C 20.480469 -8.007812 19.921875 -8.246094 18.847656 -8.246094 L 18.6875 -8.007812 C 18.367188 -7.449219 17.652344 -6.496094 16.457031 -6.496094 C 15.300781 -6.496094 15.339844 -7.25 15.339844 -7.648438 C 15.339844 -8.289062 15.621094 -9.363281 16.21875 -10.957031 C 16.894531 -12.75 17.371094 -14.464844 17.371094 -15.738281 C 17.371094 -15.976562 17.8125 -18.726562 13.546875 -18.726562 C 8.289062 -18.726562 7.648438 -20.121094 7.648438 -20.957031 C 7.648438 -21.238281 7.929688 -21.996094 8.40625 -22.59375 L 8.605469 -22.792969 L 2.628906 -23.867188 L 2.390625 -23.390625 C 2.03125 -22.710938 1.671875 -21.636719 1.671875 -20.558594 C 1.671875 -20.519531 1.355469 -18.25 4.105469 -16.734375 C 1.632812 -10.4375 -0.078125 -7.96875 -0.796875 -7.25 L -1.15625 -6.894531 Z M -0.636719 -2.589844 "/></g></g></g></svg>